<?xml version="1.0" standalone="no"?>
<!DOCTYPE svg PUBLIC "-//W3C//DTD SVG 1.1//EN" "http://www.w3.org/Graphics/SVG/1.1/DTD/svg11.dtd" >
<svg>
<metadata>
Created by FontForge 20110222 at Mon Mar  7 08:28:24 2011
 By www-data
Copyright (c) QuickStick Productions, 2005. All rights reserved.
</metadata>
<defs>
<font id="TallDarkAndHandsome-Condensed" horiz-adv-x="263" >
  <font-face 
    font-family="Tall Dark And Handsome"
    font-weight="400"
    font-stretch="condensed"
    units-per-em="1000"
    panose-1="0 0 0 0 0 0 0 0 0 0"
    ascent="800"
    descent="-200"
    x-height="700"
    cap-height="700"
    bbox="0 -1 413 701"
    underline-thickness="50"
    underline-position="-75"
    unicode-range="U+0020-2122"
  />
    <missing-glyph />
    <glyph glyph-name="space" unicode=" " horiz-adv-x="234" 
 />
    <glyph glyph-name="exclam" unicode="!" horiz-adv-x="88" 
d="M72 58h-58v-58h58v58v0zM72 700h-58v-583h58v583v0z" />
    <glyph glyph-name="quotedbl" unicode="&#x22;" horiz-adv-x="208" 
d="M74 700h-58v-175h58v175v0zM191 700h-58v-175h58v175v0z" />
    <glyph glyph-name="numbersign" unicode="#" horiz-adv-x="255" 
d="M244 496h-29v204h-58v-204h-59v204h-58v-204h-29v-59h29v-175h-29v-58h29v-204h58v204h59v-204h58v204h29v58h-29v175h29v59v0zM157 262h-59v175h59v-175v0z" />
    <glyph glyph-name="dollar" unicode="$" horiz-adv-x="253" 
d="M243 525v29q0 37 -25 62q-26 26 -62 26v58h-58v-58q-36 0 -62 -26t-26 -62v-29q-1 -133 86 -192l2 -2v-207q-8 5 -12 10q-18 16 -18 41h-58v-29q0 -36 26 -62t62 -26v-58h58v58q36 0 62 26q25 25 25 62v29q2 134 -85 192l-2 2v207q3 -2 6 -4.5t6 -5.5q17 -17 17 -41h58z
M86 566q4 5 12 10v-154q-28 37 -28 74l-2 29q0 24 18 41zM168 134q-4 -4 -12 -10v154q27 -35 28 -74l1 -29q0 -24 -17 -41z" />
    <glyph glyph-name="percent" unicode="%" horiz-adv-x="255" 
d="M244 700h-58l-175 -700h58zM98 671q0 13 -8 20q-9 9 -21 9h-29q-13 0 -20 -9q-9 -8 -9 -20v-29q0 -12 9 -21q7 -9 20 -9h29q12 0 21 9q8 8 8 21v29zM236 79q-8 8 -21 8h-29q-13 0 -21 -8q-8 -10 -8 -21v-29q0 -12 8 -20q9 -9 21 -9h29q12 0 21 9q8 7 8 20v29q0 13 -8 21z
" />
    <glyph glyph-name="ampersand" unicode="&#x26;" horiz-adv-x="317" 
d="M248 612q0 37 -25 62q-26 26 -62 26h-59q-35 0 -61 -26t-26 -62v-219q0 -18 13 -30q1 -2 2 -2.5t3 -2.5q11 -8 25 -8q-13 0 -26 -8q-1 -2 -2 -2.5t-2 -2.5q-13 -12 -13 -30v-220q0 -35 26 -61t61 -26h205v58h-30l30 29l-44 44l-15 -14v190q0 18 -12 30l-5 5q-11 8 -25 8
q12 0 25 8q1 2 2 2.5t3 2.5q12 12 12 30v219zM132 642q24 0 41 -17q17 -19 17 -42v-146q0 -22 -17 -41q-17 -17 -41 -17q-23 0 -42 17q-17 19 -17 41v146q0 23 17 42q19 17 42 17zM73 262q0 23 17 42q19 17 42 17q24 0 41 -17q17 -19 17 -42v-145q0 -23 -17 -42
q-17 -17 -41 -17q-23 0 -42 17q-17 19 -17 42v145z" />
    <glyph glyph-name="quotesingle" unicode="'" horiz-adv-x="92" 
d="M74 700h-58v-175h58v175v0z" />
    <glyph glyph-name="parenleft" unicode="(" horiz-adv-x="141" 
d="M132 642v58h-30q-35 0 -61 -26t-26 -62v-525q0 -35 26 -61t61 -26h30v58q-23 0 -42 17q-17 19 -17 42v466q0 23 17 42q19 17 42 17z" />
    <glyph glyph-name="parenright" unicode=")" horiz-adv-x="141" 
d="M37 700h-29v-58q24 0 41 -17t17 -42v-466q0 -25 -17 -42t-41 -17v-58h29q36 0 62 26t26 61v525q0 36 -26 62t-62 26z" />
    <glyph glyph-name="asterisk" unicode="*" horiz-adv-x="251" 
d="M242 583v59h-87v58h-59v-58h-87v-59h58l-45 -66l45 -31l59 68l58 -68l46 31l-46 66h58v0z" />
    <glyph glyph-name="plus" unicode="+" horiz-adv-x="242" 
d="M237 87v59h-87v87h-59v-87h-87v-59h87v-87h59v87h87v0z" />
    <glyph glyph-name="comma" unicode="," horiz-adv-x="86" 
d="M15 29h29l-29 -29h29l29 29v58h-58v-58v0z" />
    <glyph glyph-name="hyphen" unicode="-" horiz-adv-x="266" 
d="M249 87v59h-233v-59h233v0z" />
    <glyph glyph-name="period" unicode="." horiz-adv-x="92" 
d="M74 58h-58v-58h58v58v0z" />
    <glyph glyph-name="slash" unicode="/" horiz-adv-x="237" 
d="M235 700h-58l-175 -700h58l175 700v0z" />
    <glyph glyph-name="zero" unicode="0" horiz-adv-x="264" 
d="M248 612q0 37 -25 62q-26 26 -62 26h-59q-35 0 -61 -26t-26 -62v-525q0 -35 26 -61t61 -26h59q36 0 62 26q25 25 25 61v525zM132 642q24 0 41 -17q17 -19 17 -42v-466q0 -23 -17 -42q-17 -17 -41 -17q-23 0 -42 17q-17 19 -17 42v466q0 23 17 42q19 17 42 17z" />
    <glyph glyph-name="one" unicode="1" horiz-adv-x="165" 
d="M89 700l-87 -58v-65l87 59v-636h59v700h-59v0z" />
    <glyph glyph-name="two" unicode="2" horiz-adv-x="259" 
d="M248 612q0 37 -25 62q-26 26 -62 26h-59q-35 0 -61 -26t-26 -62v-87h58v58q0 23 17 42q19 17 42 17q24 0 41 -17q17 -19 17 -42l-1 -58v-29q-2 -23 -10 -43l-164 -389v-64h233v58h-175l154 350q11 25 16.5 54t4.5 63v87z" />
    <glyph glyph-name="three" unicode="3" 
d="M247 612q0 37 -25 62q-26 26 -62 26h-59q-35 0 -61 -26t-26 -62v-87h58v58q0 23 17 42q19 17 42 17q24 0 41 -17q17 -19 17 -42v-146q0 -22 -17 -41q-17 -17 -41 -17h-30v-58h30q24 0 41 -17q17 -19 17 -42v-145q0 -23 -17 -42q-17 -17 -41 -17q-23 0 -42 17
q-17 19 -17 42v58h-58v-88q0 -35 26 -61t61 -26h59q36 0 62 26q25 25 25 61v220q0 18 -12 30l-5 5q-11 8 -25 8q12 0 25 8q1 2 2 2.5t3 2.5q12 12 12 30v219z" />
    <glyph glyph-name="four" unicode="4" horiz-adv-x="243" 
d="M179 700h-58l-117 -467v-58h117v-175h58v175h58v58h-58v467v0zM121 233h-59l59 243v-243v0z" />
    <glyph glyph-name="five" unicode="5" horiz-adv-x="259" 
d="M248 642v58h-233v-321h117q24 0 41 -17t17 -41v-204q0 -23 -17 -42q-17 -17 -41 -17q-23 0 -42 17q-17 19 -17 42v58h-58v-88q0 -35 26 -61t61 -26h59q36 0 62 26q25 25 25 61v265q0 33 -25 60q-25 25 -62 25h-88v205h175z" />
    <glyph glyph-name="six" unicode="6" 
d="M248 612q0 37 -25 62q-26 26 -62 26h-59q-35 0 -61 -26t-26 -62v-525q0 -35 26 -61t61 -26h59q36 0 62 26q25 25 25 61v265q0 33 -25 60q-15 15 -33 21q-12 4 -29 4h-88v146q0 23 17 42q19 17 42 17q24 0 41 -17q17 -19 17 -42v-58h58v87zM132 379q24 0 41 -17t17 -41
v-204q0 -23 -17 -42q-17 -17 -41 -17q-23 0 -42 17q-17 19 -17 42v262h59z" />
    <glyph glyph-name="seven" unicode="7" horiz-adv-x="243" 
d="M8 700v-58h160l-160 -642h58l175 700h-233v0z" />
    <glyph glyph-name="eight" unicode="8" horiz-adv-x="264" 
d="M248 612q0 37 -25 62q-26 26 -62 26h-59q-35 0 -61 -26t-26 -62v-219q0 -18 13 -30q1 -2 2 -2.5t3 -2.5q11 -8 25 -8q-13 0 -26 -8q-1 -2 -2 -2.5t-2 -2.5q-13 -12 -13 -30v-220q0 -35 26 -61t61 -26h59q36 0 62 26q25 25 25 61v220q0 18 -12 30l-5 5q-11 8 -25 8
q12 0 25 8q1 2 2 2.5t3 2.5q12 12 12 30v219zM132 642q24 0 41 -17q17 -19 17 -42v-146q0 -22 -17 -41q-17 -17 -41 -17q-23 0 -42 17q-17 19 -17 41v146q0 23 17 42q19 17 42 17zM73 262q0 23 17 42q19 17 42 17q24 0 41 -17q17 -19 17 -42v-145q0 -23 -17 -42
q-17 -17 -41 -17q-23 0 -42 17q-17 19 -17 42v145z" />
    <glyph glyph-name="nine" unicode="9" horiz-adv-x="264" 
d="M248 612q0 37 -25 62q-26 26 -62 26h-59q-35 0 -61 -26t-26 -62v-264q0 -34 26 -60q13 -15 32 -21q15 -5 29 -5h88v-145q0 -23 -17 -42q-17 -17 -41 -17q-23 0 -42 17q-17 19 -17 42v58h-58v-88q0 -35 26 -61t61 -26h59q36 0 62 26q25 25 25 61v525zM132 642q24 0 41 -17
q17 -19 17 -42v-262h-58q-23 0 -42 17q-17 17 -17 41v204q0 23 17 42q19 17 42 17z" />
    <glyph glyph-name="colon" unicode=":" horiz-adv-x="83" 
d="M74 58h-58v-58h58v58v0zM74 175h-58v-58h58v58v0z" />
    <glyph glyph-name="semicolon" unicode=";" horiz-adv-x="87" 
d="M72 146v58h-58v-58h58v0zM14 29h29l-29 -29h29l29 29v58h-58v-58v0z" />
    <glyph glyph-name="less" unicode="&#x3c;" horiz-adv-x="244" 
d="M233 482v72l-233 -204l233 -204v72l-146 132l146 132v0z" />
    <glyph glyph-name="equal" unicode="=" horiz-adv-x="257" 
d="M249 119v59h-233v-59h233v0zM249 58h-233v-58h233v58v0z" />
    <glyph glyph-name="greater" unicode="&#x3e;" horiz-adv-x="249" 
d="M16 554v-72l146 -132l-146 -132v-72l233 204l-233 204v0z" />
    <glyph glyph-name="question" unicode="?" horiz-adv-x="247" 
d="M68 58h-58v-58h58v58zM243 612q0 37 -25 62q-26 26 -62 26h-59q-35 0 -61 -26t-26 -62v-87h58v58q0 23 17 42q19 17 42 17q24 0 41 -17q17 -19 17 -42v-204q0 -24 -17 -41t-41 -17h-30q-35 0 -61 -26t-26 -62v-116h58v87q0 24 17 41t42 17h29q36 0 62 26q25 27 25 60v264
z" />
    <glyph glyph-name="at" unicode="@" horiz-adv-x="264" 
d="M248 612q0 37 -25 62q-26 26 -62 26h-59q-35 0 -61 -26t-26 -62v-525q0 -35 26 -61t61 -26h146v58h-116q-23 0 -42 17q-17 19 -17 42v466q0 23 17 42q19 17 42 17q24 0 41 -17q17 -19 17 -42v-423q0 -4 -4 -10q-4 -4 -10 -4h-1q-6 0 -10 4t-4 10v423q0 12 -9 21
q-7 8 -20 8t-21 -8q-9 -9 -9 -21v-466q0 -12 9 -21t21 -9h87q12 0 21 9q8 10 8 20v496z" />
    <glyph glyph-name="A" unicode="A" horiz-adv-x="248" 
d="M153 700h-59l-87 -700h64l19 175h68l18 -175h64l-87 700v0zM152 233h-56l28 266l28 -266v0z" />
    <glyph glyph-name="B" unicode="B" horiz-adv-x="265" 
d="M249 612q0 37 -25 62q-26 26 -62 26h-146v-700h146q36 0 62 26q25 25 25 61v220q0 18 -12 30l-5 5q-11 8 -25 8q12 0 25 8q1 2 2 2.5t3 2.5q12 12 12 30v219zM133 642q24 0 41 -17q17 -19 17 -42v-146q0 -22 -17 -41q-17 -17 -41 -17h-59v263h59zM174 304q17 -19 17 -42
v-145q0 -23 -17 -42q-17 -17 -41 -17h-59v263h59q24 0 41 -17z" />
    <glyph glyph-name="C" unicode="C" 
d="M248 612q0 37 -25 62q-26 26 -62 26h-59q-35 0 -61 -26t-26 -62v-525q0 -35 26 -61t61 -26h59q36 0 62 26q25 25 25 61v88h-58v-58q0 -23 -17 -42q-17 -17 -41 -17q-23 0 -42 17q-17 19 -17 42v466q0 23 17 42q19 17 42 17q24 0 41 -17q17 -19 17 -42v-58h58v87z" />
    <glyph glyph-name="D" unicode="D" horiz-adv-x="265" 
d="M249 612q0 37 -25 62q-26 26 -62 26h-146v-700h146q36 0 62 26q25 25 25 61v525zM133 642q24 0 41 -17q17 -19 17 -42v-466q0 -23 -17 -42q-17 -17 -41 -17h-59v584h59z" />
    <glyph glyph-name="E" unicode="E" horiz-adv-x="253" 
d="M249 642v58h-233v-700h233v58h-175v263h175v58h-175v263h175v0z" />
    <glyph glyph-name="F" unicode="F" horiz-adv-x="249" 
d="M249 642v58h-233v-700h58v321h175v58h-175v263h175v0z" />
    <glyph glyph-name="G" unicode="G" 
d="M248 612q0 37 -25 62q-26 26 -62 26h-59q-35 0 -61 -26t-26 -62v-525q0 -35 26 -61t61 -26h59q36 0 62 26q25 25 25 61v263h-116v-58h58v-175q0 -23 -17 -42q-17 -17 -41 -17q-23 0 -42 17q-17 19 -17 42v466q0 23 17 42q19 17 42 17q24 0 41 -17q17 -19 17 -42v-58h58
v87z" />
    <glyph glyph-name="H" unicode="H" horiz-adv-x="266" 
d="M74 700h-58v-700h58v321h117v-321h58v700h-58v-321h-117v321v0z" />
    <glyph glyph-name="I" unicode="I" horiz-adv-x="92" 
d="M74 700h-58v-700h58v700v0z" />
    <glyph glyph-name="J" unicode="J" horiz-adv-x="251" 
d="M235 700h-58v-583q0 -23 -17 -42q-17 -17 -41 -17q-23 0 -42 17q-17 19 -17 42v58h-58v-88q0 -35 26 -61t61 -26h59q36 0 62 26q25 25 25 61v613z" />
    <glyph glyph-name="K" unicode="K" horiz-adv-x="262" 
d="M74 700h-58v-700h58v332l111 -332h64l-116 350l116 350h-64l-111 -333v333v0z" />
    <glyph glyph-name="L" unicode="L" horiz-adv-x="249" 
d="M74 700h-58v-700h233v58h-175v642v0z" />
    <glyph glyph-name="M" unicode="M" horiz-adv-x="324" 
d="M308 700h-94l-52 -496l-53 496h-93v-700h58v467l59 -467h58l58 467v-467h59v700v0z" />
    <glyph glyph-name="N" unicode="N" horiz-adv-x="266" 
d="M106 700h-90v-700h58v521l85 -521h90v700h-58v-520l-85 520v0z" />
    <glyph glyph-name="O" unicode="O" horiz-adv-x="264" 
d="M248 612q0 37 -25 62q-26 26 -62 26h-59q-35 0 -61 -26t-26 -62v-525q0 -35 26 -61t61 -26h59q36 0 62 26q25 25 25 61v525zM132 642q24 0 41 -17q17 -19 17 -42v-466q0 -23 -17 -42q-17 -17 -41 -17q-23 0 -42 17q-17 19 -17 42v466q0 23 17 42q19 17 42 17z" />
    <glyph glyph-name="P" unicode="P" horiz-adv-x="253" 
d="M249 612q0 37 -25 62q-26 26 -62 26h-146v-700h58v321h88q37 0 62 25q25 26 25 62v204zM133 642q24 0 41 -17q17 -19 17 -42v-146q0 -22 -17 -41q-17 -17 -41 -17h-59v263h59z" />
    <glyph glyph-name="Q" unicode="Q" horiz-adv-x="316" 
d="M249 612q0 37 -25 62q-26 26 -62 26h-59q-35 0 -61 -26t-26 -62v-525q0 -35 26 -61t61 -26h205v58h-63q4 12 4 29v525zM133 642q24 0 41 -17q17 -19 17 -42v-466q0 -23 -17 -42q-17 -17 -41 -17q-23 0 -42 17q-17 19 -17 42v466q0 23 17 42q19 17 42 17z" />
    <glyph glyph-name="R" unicode="R" horiz-adv-x="265" 
d="M249 612q0 37 -25 62q-26 26 -62 26h-146v-700h58v321h59q24 0 41 -17q17 -19 17 -42v-262h58v307q0 18 -12 30l-5 5q-11 8 -25 8q12 0 25 8q1 2 2 2.5t3 2.5q12 12 12 30v219zM133 642q24 0 41 -17q17 -19 17 -42v-146q0 -22 -17 -41q-17 -17 -41 -17h-59v263h59z" />
    <glyph glyph-name="S" unicode="S" 
d="M248 612q0 37 -25 62q-26 26 -62 26h-58q-36 0 -62 -26t-26 -62v-87q-1 -133 86 -192q87 -61 88 -129l1 -29v-58q0 -23 -17 -42q-17 -17 -41 -17t-41 17q-18 18 -18 42v58h-58v-88q0 -35 26 -61t62 -26h58q36 0 62 26q25 25 25 61v88q2 134 -85 192q-86 60 -88 129v29
l-2 58q0 24 18 42q17 17 41 17t41 -17q17 -19 17 -42v-58h58v87z" />
    <glyph glyph-name="T" unicode="T" horiz-adv-x="242" 
d="M237 642v58h-233v-58h87v-642h59v642h87v0z" />
    <glyph glyph-name="U" unicode="U" horiz-adv-x="265" 
d="M74 700h-58v-613q0 -35 26 -61t61 -26h59q36 0 62 26q25 25 25 61v613h-58v-583q0 -23 -17 -42q-17 -17 -41 -17q-23 0 -42 17q-17 19 -17 42v583z" />
    <glyph glyph-name="V" unicode="V" horiz-adv-x="248" 
d="M71 700h-64l87 -700h59l87 700h-64l-52 -496l-53 496v0z" />
    <glyph glyph-name="W" unicode="W" horiz-adv-x="424" 
d="M75 700h-64l87 -700h59l55 443l56 -443h58l87 700h-64l-52 -496l-53 496h-64l-52 -496l-53 496v0z" />
    <glyph glyph-name="X" unicode="X" horiz-adv-x="259" 
d="M74 700h-61l86 -350l-86 -350h61l56 225l55 -225h61l-86 350l86 350h-61l-55 -225l-56 225v0z" />
    <glyph glyph-name="Y" unicode="Y" horiz-adv-x="245" 
d="M67 700h-61l87 -350v-350h59v350l87 350h-61l-55 -225l-56 225v0z" />
    <glyph glyph-name="Z" unicode="Z" horiz-adv-x="250" 
d="M8 700v-58h158l-158 -642h233v58h-157l157 642h-233v0z" />
    <glyph glyph-name="bracketleft" unicode="[" horiz-adv-x="140" 
d="M133 642v58h-117v-700h117v58h-59v584h59v0z" />
    <glyph glyph-name="backslash" unicode="\" horiz-adv-x="237" 
d="M60 700h-58l175 -700h58l-175 700v0z" />
    <glyph glyph-name="bracketright" unicode="]" horiz-adv-x="140" 
d="M6 642h58v-584h-58v-58h117v700h-117v-58v0z" />
    <glyph glyph-name="asciicircum" unicode="^" horiz-adv-x="245" 
d="M6 437h58l59 146l58 -146h58l-116 263l-117 -263v0z" />
    <glyph glyph-name="underscore" unicode="_" horiz-adv-x="266" 
d="M249 58h-233v-58h233v58v0z" />
    <glyph glyph-name="grave" unicode="`" horiz-adv-x="129" 
d="M64 583h58l-58 117h-59l59 -117v0z" />
    <glyph glyph-name="a" unicode="a" horiz-adv-x="249" 
d="M154 700h-59l-87 -700h64l19 175h68l18 -175h64l-87 700v0zM153 233h-56l28 266l28 -266v0z" />
    <glyph glyph-name="b" unicode="b" horiz-adv-x="265" 
d="M249 612q0 37 -25 62q-26 26 -62 26h-146v-700h146q36 0 62 26q25 25 25 61v220q0 18 -12 30l-5 5q-11 8 -25 8q12 0 25 8q1 2 2 2.5t3 2.5q12 12 12 30v219zM133 642q24 0 41 -17q17 -19 17 -42v-146q0 -22 -17 -41q-17 -17 -41 -17h-59v263h59zM174 304q17 -19 17 -42
v-145q0 -23 -17 -42q-17 -17 -41 -17h-59v263h59q24 0 41 -17z" />
    <glyph glyph-name="c" unicode="c" 
d="M248 612q0 37 -25 62q-26 26 -62 26h-59q-35 0 -61 -26t-26 -62v-525q0 -35 26 -61t61 -26h59q36 0 62 26q25 25 25 61v88h-58v-58q0 -23 -17 -42q-17 -17 -41 -17q-23 0 -42 17q-17 19 -17 42v466q0 23 17 42q19 17 42 17q24 0 41 -17q17 -19 17 -42v-58h58v87z" />
    <glyph glyph-name="d" unicode="d" horiz-adv-x="265" 
d="M249 612q0 37 -25 62q-26 26 -62 26h-146v-700h146q36 0 62 26q25 25 25 61v525zM133 642q24 0 41 -17q17 -19 17 -42v-466q0 -23 -17 -42q-17 -17 -41 -17h-59v584h59z" />
    <glyph glyph-name="e" unicode="e" horiz-adv-x="253" 
d="M249 642v58h-233v-700h233v58h-175v263h175v58h-175v263h175v0z" />
    <glyph glyph-name="f" unicode="f" horiz-adv-x="249" 
d="M249 642v58h-233v-700h58v321h175v58h-175v263h175v0z" />
    <glyph glyph-name="g" unicode="g" 
d="M248 612q0 37 -25 62q-26 26 -62 26h-59q-35 0 -61 -26t-26 -62v-525q0 -35 26 -61t61 -26h59q36 0 62 26q25 25 25 61v263h-116v-58h58v-175q0 -23 -17 -42q-17 -17 -41 -17q-23 0 -42 17q-17 19 -17 42v466q0 23 17 42q19 17 42 17q24 0 41 -17q17 -19 17 -42v-58h58
v87z" />
    <glyph glyph-name="h" unicode="h" horiz-adv-x="266" 
d="M74 700h-58v-700h58v321h117v-321h58v700h-58v-321h-117v321v0z" />
    <glyph glyph-name="i" unicode="i" horiz-adv-x="92" 
d="M74 700h-58v-700h58v700v0z" />
    <glyph glyph-name="j" unicode="j" horiz-adv-x="251" 
d="M235 700h-58v-583q0 -23 -17 -42q-17 -17 -41 -17q-23 0 -42 17q-17 19 -17 42v58h-58v-88q0 -35 26 -61t61 -26h59q36 0 62 26q25 25 25 61v613z" />
    <glyph glyph-name="k" unicode="k" horiz-adv-x="262" 
d="M74 700h-58v-700h58v332l111 -332h64l-116 350l116 350h-64l-111 -333v333v0z" />
    <glyph glyph-name="l" unicode="l" horiz-adv-x="249" 
d="M74 700h-58v-700h233v58h-175v642v0z" />
    <glyph glyph-name="m" unicode="m" horiz-adv-x="324" 
d="M308 700h-94l-52 -496l-53 496h-93v-700h58v467l59 -467h58l58 467v-467h59v700v0z" />
    <glyph glyph-name="n" unicode="n" horiz-adv-x="266" 
d="M106 700h-90v-700h58v521l85 -521h90v700h-58v-520l-85 520v0z" />
    <glyph glyph-name="o" unicode="o" horiz-adv-x="264" 
d="M248 612q0 37 -25 62q-26 26 -62 26h-59q-35 0 -61 -26t-26 -62v-525q0 -35 26 -61t61 -26h59q36 0 62 26q25 25 25 61v525zM132 642q24 0 41 -17q17 -19 17 -42v-466q0 -23 -17 -42q-17 -17 -41 -17q-23 0 -42 17q-17 19 -17 42v466q0 23 17 42q19 17 42 17z" />
    <glyph glyph-name="p" unicode="p" horiz-adv-x="253" 
d="M249 612q0 37 -25 62q-26 26 -62 26h-146v-700h58v321h88q37 0 62 25q25 26 25 62v204zM133 642q24 0 41 -17q17 -19 17 -42v-146q0 -22 -17 -41q-17 -17 -41 -17h-59v263h59z" />
    <glyph glyph-name="q" unicode="q" horiz-adv-x="316" 
d="M249 612q0 37 -25 62q-26 26 -62 26h-59q-35 0 -61 -26t-26 -62v-525q0 -35 26 -61t61 -26h205v58h-63q4 12 4 29v525zM133 642q24 0 41 -17q17 -19 17 -42v-466q0 -23 -17 -42q-17 -17 -41 -17q-23 0 -42 17q-17 19 -17 42v466q0 23 17 42q19 17 42 17z" />
    <glyph glyph-name="r" unicode="r" horiz-adv-x="265" 
d="M249 612q0 37 -25 62q-26 26 -62 26h-146v-700h58v321h59q24 0 41 -17q17 -19 17 -42v-262h58v307q0 18 -12 30l-5 5q-11 8 -25 8q12 0 25 8q1 2 2 2.5t3 2.5q12 12 12 30v219zM133 642q24 0 41 -17q17 -19 17 -42v-146q0 -22 -17 -41q-17 -17 -41 -17h-59v263h59z" />
    <glyph glyph-name="s" unicode="s" 
d="M248 612q0 37 -25 62q-26 26 -62 26h-58q-36 0 -62 -26t-26 -62v-87q-1 -133 86 -192q87 -61 88 -129l1 -29v-58q0 -23 -17 -42q-17 -17 -41 -17t-41 17q-18 18 -18 42v58h-58v-88q0 -35 26 -61t62 -26h58q36 0 62 26q25 25 25 61v88q2 134 -85 192q-86 60 -88 129v29
l-2 58q0 24 18 42q17 17 41 17t41 -17q17 -19 17 -42v-58h58v87z" />
    <glyph glyph-name="t" unicode="t" horiz-adv-x="242" 
d="M237 642v58h-233v-58h87v-642h59v642h87v0z" />
    <glyph glyph-name="u" unicode="u" horiz-adv-x="265" 
d="M74 700h-58v-613q0 -35 26 -61t61 -26h59q36 0 62 26q25 25 25 61v613h-58v-583q0 -23 -17 -42q-17 -17 -41 -17q-23 0 -42 17q-17 19 -17 42v583z" />
    <glyph glyph-name="v" unicode="v" horiz-adv-x="248" 
d="M71 700h-64l87 -700h59l87 700h-64l-52 -496l-53 496v0z" />
    <glyph glyph-name="w" unicode="w" horiz-adv-x="424" 
d="M75 700h-64l87 -700h59l55 443l56 -443h58l87 700h-64l-52 -496l-53 496h-64l-52 -496l-53 496v0z" />
    <glyph glyph-name="x" unicode="x" horiz-adv-x="259" 
d="M74 700h-61l86 -350l-86 -350h61l56 225l55 -225h61l-86 350l86 350h-61l-55 -225l-56 225v0z" />
    <glyph glyph-name="y" unicode="y" horiz-adv-x="245" 
d="M67 700h-61l87 -350v-350h59v350l87 350h-61l-55 -225l-56 225v0z" />
    <glyph glyph-name="z" unicode="z" horiz-adv-x="250" 
d="M8 700v-58h158l-158 -642h233v58h-157l157 642h-233v0z" />
    <glyph glyph-name="braceleft" unicode="{" horiz-adv-x="189" 
d="M178 642v58h-29q-36 0 -62 -26t-26 -62v-174q0 -22 -17 -39q-17 -18 -41 -18v-58q24 0 41 -17t17 -40v-179q0 -35 26 -61t62 -26h29v58q-24 0 -41 17t-17 42v193q-2 19 -13 30q-2 1 -2.5 2t-2.5 2q-11 8 -25 8q14 0 25 8l5 5q11 11 13 29v189q0 25 17 42t41 17z" />
    <glyph glyph-name="bar" unicode="|" horiz-adv-x="131" 
d="M114 699h-98v-700h98v700v0z" />
    <glyph glyph-name="braceright" unicode="}" horiz-adv-x="189" 
d="M40 700h-29v-58q24 0 41 -17t17 -42v-189q2 -18 13 -29l5 -5q11 -8 25 -8q-14 0 -25 -8q-2 -1 -2.5 -2t-2.5 -2q-11 -11 -13 -30v-193q0 -25 -17 -42t-41 -17v-58h29q36 0 62 26t26 61v179q0 23 17 40t41 17v58q-25 0 -41 18q-17 17 -17 39v174q0 36 -26 62t-62 26z" />
    <glyph glyph-name="asciitilde" unicode="~" horiz-adv-x="284" 
d="M273 642v58l-87 -88l-88 88l-87 -88v-58l87 88l88 -88l87 88v0z" />
    <glyph glyph-name="Euro" unicode="&#x20ac;" horiz-adv-x="314" 
d="M299 612q0 36 -26 62t-62 26h-58q-36 0 -62 -26t-26 -62v-175h-29v-58h29v-58h-58v-59h58v-175q0 -35 26 -61t62 -26h58q36 0 62 26t26 61v88h-59v-58q0 -25 -17 -42t-41 -17t-41 17t-17 42v145h116v59h-116v58h145v58h-145v146q0 25 17 42t41 17t41 -17t17 -42v-58h59
v87z" />
    <glyph glyph-name="quotesinglbase" unicode="&#x201a;" horiz-adv-x="86" 
d="M15 29h29l-29 -29h29l29 29v58h-58v-58v0z" />
    <glyph glyph-name="quotedblbase" unicode="&#x201e;" horiz-adv-x="208" 
d="M74 175h-58v-175h58v175v0zM191 175h-58v-175h58v175v0z" />
    <glyph glyph-name="ellipsis" unicode="&#x2026;" horiz-adv-x="266" 
d="M74 58h-58v-58h58v58v0zM249 58h-58v-58h58v58v0zM162 58h-59v-58h59v58v0z" />
    <glyph glyph-name="quoteleft" unicode="&#x2018;" horiz-adv-x="92" 
d="M74 700h-58v-175h58v175v0z" />
    <glyph glyph-name="quoteright" unicode="&#x2019;" horiz-adv-x="92" 
d="M74 700h-58v-175h58v175v0z" />
    <glyph glyph-name="quotedblleft" unicode="&#x201c;" horiz-adv-x="208" 
d="M74 700h-58v-175h58v175v0zM191 700h-58v-175h58v175v0z" />
    <glyph glyph-name="quotedblright" unicode="&#x201d;" horiz-adv-x="208" 
d="M74 700h-58v-175h58v175v0zM191 700h-58v-175h58v175v0z" />
    <glyph glyph-name="bullet" unicode="&#x2022;" horiz-adv-x="116" 
d="M23 385q-9 -8 -9 -20v-30q0 -13 9 -20q7 -9 20 -9h29q12 0 21 9q8 7 8 20v30q0 13 -8 20q-9 9 -21 9h-29q-13 0 -20 -9z" />
    <glyph glyph-name="trademark" unicode="&#x2122;" horiz-adv-x="278" 
d="M119 671v27h-109v-27h41v-301h27v301h41v0zM262 698h-44l-24 -232l-25 232h-43v-328h27v219l28 -219h27l27 219v-219h27v328v0z" />
    <glyph glyph-name="copyright" unicode="&#xa9;" horiz-adv-x="196" 
d="M108 472h-20q-14 0 -22 -8q-9 -9 -9 -22v-184q0 -12 9 -22q11 -9 22 -9h20q11 0 22 9q8 9 8 22v31h-20v-21q0 -8 -6 -14t-14 -6q-9 0 -15 6t-6 14v164q0 8 6 14t15 6q8 0 14 -6t6 -14v-21h20v31q0 14 -8 22t-22 8zM179 482q0 12 -9 21t-21 9h-102q-13 0 -22 -9t-9 -21
v-266q0 -12 9 -22q11 -9 22 -9h102q10 0 21 9q9 10 9 22v266zM42 486q6 6 15 6h81q9 0 15 -6t6 -15v-245q0 -8 -6 -14t-15 -6h-81q-9 0 -15 6t-6 14v245q0 9 6 15z" />
    <glyph glyph-name="registered" unicode="&#xae;" horiz-adv-x="196" 
d="M179 482q0 12 -9 21t-21 9h-102q-13 0 -22 -9t-9 -21v-266q0 -12 9 -22q11 -9 22 -9h102q10 0 21 9q9 10 9 22v266zM36 471q0 9 6 15t15 6h81q9 0 15 -6t6 -15v-245q0 -8 -6 -14t-15 -6h-81q-9 0 -15 6t-6 14v245zM108 472h-51v-245h20v113h21q8 0 14 -6t6 -15v-92h20
v108q0 7 -4 11l-0.5 0.5t-1.5 0.5q-3 3 -8 3q5 0 8 3h1q0 1 1 1q4 4 4 11v77q0 14 -8 22t-22 8zM77 452h21q8 0 14 -6t6 -14v-51q0 -9 -6 -15t-14 -6h-21v92z" />
    <glyph glyph-name="degree" unicode="&#xb0;" horiz-adv-x="260" 
d="M246 613q0 37 -25 62q-26 26 -62 26h-59q-35 0 -61 -26t-26 -62v-67q0 -35 26 -61t61 -26h59q36 0 62 26q25 25 25 61v67zM130 643q24 0 41 -17q17 -19 17 -42v-8q0 -23 -17 -42q-17 -17 -41 -17q-23 0 -42 17q-17 19 -17 42v8q0 23 17 42q19 17 42 17z" />
    <glyph glyph-name="plusminus" unicode="&#xb1;" horiz-adv-x="252" 
d="M242 187v59h-87v87h-59v-87h-87v-59h87v-87h59v87h87v0zM242 58h-233v-58h233v58v0z" />
    <glyph glyph-name="twosuperior" unicode="&#xb2;" horiz-adv-x="127" 
d="M115 662q0 17 -11 27q-11 11 -26 11h-26q-15 0 -26 -11t-11 -27v-37h25v25q0 9 7 18q9 7 18 7t18 -7q7 -7 7 -18v-25v-13q-1 -5 -2 -9t-3 -9l-70 -167v-28h100v25h-75l66 151q5 11 7.5 23t1.5 27v37z" />
    <glyph glyph-name="threesuperior" unicode="&#xb3;" horiz-adv-x="132" 
d="M115 663q0 16 -11 27t-27 11h-25q-14 0 -27 -11q-11 -13 -11 -27v-38h25v25q0 10 8 18t18 8t18 -8q7 -9 7 -18v-63q0 -9 -7 -18q-8 -8 -18 -8h-13v-25h13q11 0 18 -7q7 -9 7 -18v-63q0 -9 -7 -19q-9 -7 -18 -7t-18 7q-8 10 -8 19v25h-25v-38q0 -16 11 -27q13 -11 27 -11
h25q16 0 27 11q11 10 11 27v95q0 9 -5 13l-2 2q-4 4 -11 4q5 0 11 3q0 1 2 3q5 4 5 13v95z" />
    <glyph glyph-name="acute" unicode="&#xb4;" horiz-adv-x="129" 
d="M123 700h-58l-59 -117h59l58 117v0z" />
    <glyph glyph-name="onesuperior" unicode="&#xb9;" horiz-adv-x="82" 
d="M39 699l-37 -25v-28l37 26v-272h25v299h-25v0z" />
    <glyph glyph-name="questiondown" unicode="&#xbf;" horiz-adv-x="247" 
d="M179 642h58v58h-58v-58zM4 88q0 -37 25 -62q26 -26 62 -26h59q35 0 61 26t26 62v87h-58v-58q0 -23 -17 -42q-19 -17 -42 -17q-24 0 -41 17q-17 19 -17 42v204q0 24 17 41t41 17h30q35 0 61 26t26 62v116h-58v-87q0 -24 -17 -41t-42 -17h-29q-36 0 -62 -26
q-25 -27 -25 -60v-264z" />
  </font>
</defs>
</svg>
